<svg xmlns="http://www.w3.org/2000/svg" viewBox="0 0 24 24">
  <path fill-rule="evenodd" clip-rule="evenodd" d="M21.4379 5.44606C21.735 6.23107 21.8903 7.06376 21.9025 7.9031C21.9643 8.95931 21.9645 9.30473 21.9667 11.9783L21.9668 12.0155C21.9668 14.7243 21.9523 15.0624 21.9047 16.1291C21.888 16.9595 21.7317 17.7778 21.4401 18.554C20.9201 19.8934 19.8612 20.9533 18.5207 21.4734C17.7446 21.765 16.9252 21.9213 16.0969 21.9379C15.038 22 14.691 22 11.9834 22C9.27576 22 8.93758 21.9856 7.86984 21.9379C7.03826 21.9113 6.21888 21.7406 5.44717 21.439C4.10556 20.9201 3.04668 19.8601 2.52667 18.5207C2.23506 17.7435 2.07872 16.9252 2.06209 16.0958C2 15.0358 2 14.6899 2 11.9823C2 9.27465 2.01441 8.93648 2.06209 7.86873C2.07761 7.04048 2.23506 6.22109 2.52667 5.44606C3.04557 4.10556 4.10556 3.04557 5.44606 2.52667C6.22109 2.23506 7.04048 2.07872 7.86873 2.06098C8.92761 2 9.27465 2 11.9823 2C14.6899 2 15.0281 2.01331 16.0947 2.06098C16.9241 2.07872 17.7434 2.23506 18.5185 2.52667C19.859 3.04557 20.9179 4.10556 21.4379 5.44606ZM6.84977 11.9767C6.84977 14.8085 9.14382 17.1026 11.9756 17.1026C14.8052 17.1026 17.1015 14.8085 17.1015 11.9767C17.1015 9.14493 14.8052 6.85088 11.9756 6.85088C9.14382 6.85088 6.84977 9.14493 6.84977 11.9767ZM16.1102 6.66128C16.1102 7.3221 16.6435 7.85653 17.3055 7.85653C17.9652 7.85653 18.4996 7.3221 18.4996 6.66128C18.4996 6.00045 17.9652 5.46602 17.3055 5.46602C16.6435 5.46602 16.1102 6.00045 16.1102 6.66128ZM15.3052 11.9767C15.3052 13.8156 13.8145 15.3063 11.9756 15.3063C10.1366 15.3063 8.64591 13.8156 8.64591 11.9767C8.64591 10.1378 10.1366 8.64703 11.9756 8.64703C13.8145 8.64703 15.3052 10.1378 15.3052 11.9767Z" fill="COLOR"/>
</svg>