<svg version="1.0" xmlns="http://www.w3.org/2000/svg" viewBox="0 0 1000.000000 571.000000" preserveAspectRatio="xMidYMid meet">
  <g transform="translate(0.000000,571.000000) scale(0.100000,-0.100000)" fill="currentcolor" stroke="none">
    <path d="M4695 5704 c-215 -17 -441 -83 -621 -180 -442 -241 -760 -665 -879 -1173 -40 -174 -49 -256 -49 -456 0 -200 9 -282 49 -456 105 -449 372 -843 738 -1087 241 -161 491 -246 783 -267 140 -10 174 8 174 91 0 62 -31 81 -146 89 -404 27 -744 196 -1007 500 -70 80 -167 216 -167 233 0 5 290 192 644 416 354 224 652 416 663 428 17 19 18 60 21 887 1 476 0 881 -3 900 -4 18 -17 44 -30 57 -25 25 -48 27 -170 18z m15 -973 l0 -789 -607 -383 c-333 -211 -611 -385 -617 -387 -13 -3 -23 20 -71 161 -98 283 -118 627 -55 927 121 575 523 1043 1032 1201 103 32 219 56 281 58 l37 1 0 -789z"/>
    <path d="M5159 5681 l-29 -29 0 -1757 0 -1757 29 -29 c37 -36 79 -38 118 -5 l28 24 5 652 5 653 423 267 c232 147 429 276 437 286 53 71 -34 171 -113 130 -16 -8 -190 -116 -386 -240 -196 -125 -359 -226 -361 -226 -3 0 -5 421 -5 935 l0 935 33 0 c78 0 261 -43 377 -89 189 -75 327 -168 491 -331 143 -142 215 -241 305 -419 113 -222 166 -425 184 -699 6 -112 9 -126 31 -147 38 -37 88 -37 124 0 23 22 25 31 25 124 0 111 -21 274 -51 396 -184 747 -762 1276 -1468 1345 -155 15 -169 14 -202 -19z"/>
    <path d="M1440 1391 c-146 -29 -220 -129 -220 -298 l0 -73 -60 0 -60 0 0 -80 0 -79 58 -3 57 -3 3 -403 2 -402 95 0 95 0 0 405 0 405 90 0 90 0 0 80 0 80 -90 0 -90 0 1 53 c0 28 5 68 12 87 15 44 68 80 118 80 l39 0 0 80 0 80 -52 -1 c-29 -1 -69 -4 -88 -8z"/>
    <path d="M7092 1383 c-18 -9 -40 -29 -48 -44 -55 -108 53 -225 161 -173 47 22 67 53 67 106 1 54 -14 83 -55 108 -39 24 -81 25 -125 3z"/>
    <path d="M6592 703 l3 -648 93 -3 92 -3 0 651 0 650 -95 0 -95 0 2 -647z"/>
    <path d="M8490 1141 l0 -120 -57 -3 -58 -3 -3 -77 -3 -78 60 0 60 0 3 -323 3 -324 30 -48 c40 -65 97 -94 210 -107 47 -5 107 -8 133 -6 l47 3 3 83 3 82 -91 0 c-83 0 -93 2 -115 25 l-25 24 0 296 0 295 115 0 115 0 0 80 0 80 -115 0 -114 0 -3 118 -3 117 -97 3 -98 3 0 -120z"/>
    <path d="M405 1060 c-110 -23 -190 -66 -262 -142 -216 -229 -180 -650 70 -822 256 -177 627 -94 755 167 37 75 39 92 13 107 -21 10 -201 14 -236 4 -11 -3 -32 -23 -48 -45 -34 -50 -77 -76 -138 -84 -69 -10 -122 2 -177 38 -46 32 -92 95 -92 130 0 16 24 17 359 17 257 0 362 3 367 11 4 7 7 59 6 118 0 128 -23 210 -83 300 -91 136 -247 213 -428 210 -36 -1 -84 -5 -106 -9z m280 -90 c33 -13 81 -38 107 -57 54 -39 123 -136 139 -196 16 -58 26 -152 21 -187 l-4 -30 -352 0 c-414 0 -397 4 -378 -86 32 -156 168 -256 327 -241 86 8 139 32 184 83 l39 44 72 0 72 0 -20 -32 c-128 -201 -422 -257 -629 -119 -222 149 -257 518 -67 721 51 54 140 104 214 120 73 15 207 5 275 -20z"/>
    <path d="M403 884 c-84 -30 -156 -114 -182 -212 -24 -86 -38 -82 288 -82 332 0 319 -3 302 82 -23 107 -91 182 -193 213 -64 19 -160 18 -215 -1z m245 -91 c43 -27 91 -90 92 -120 0 -10 -52 -13 -225 -13 -124 0 -225 2 -225 5 0 21 46 88 77 114 50 41 84 51 166 47 53 -3 77 -9 115 -33z"/>
    <path d="M2061 1014 c-215 -58 -351 -244 -351 -482 0 -279 206 -492 476 -492 288 0 504 210 504 491 0 243 -135 426 -355 484 -73 19 -202 18 -274 -1z m242 -171 c67 -24 121 -73 154 -141 25 -51 28 -67 28 -162 0 -95 -3 -111 -28 -162 -90 -183 -340 -226 -467 -82 -60 69 -75 116 -75 239 0 124 18 181 78 244 71 75 203 102 310 64z"/>
    <path d="M3273 1016 c-59 -19 -107 -51 -148 -99 l-35 -41 0 72 0 72 -95 0 -95 0 0 -485 0 -486 93 3 92 3 5 305 c5 284 6 308 26 350 12 25 32 55 45 66 33 30 109 54 169 54 l50 0 0 100 0 100 -32 -1 c-18 0 -52 -6 -75 -13z"/>
    <path d="M3945 1016 c-60 -19 -106 -45 -142 -79 l-33 -31 0 57 0 57 -100 0 -100 0 2 -482 3 -483 95 0 95 0 5 320 c5 349 7 360 66 419 44 43 100 66 169 66 89 0 134 -16 180 -64 65 -67 68 -84 74 -431 l6 -310 93 -3 92 -3 0 289 c0 227 3 300 15 347 30 114 93 165 211 173 88 6 148 -13 196 -61 61 -62 63 -71 68 -422 l5 -320 95 0 95 0 0 325 c0 366 -4 396 -66 488 -74 112 -169 157 -329 157 -92 0 -112 -3 -160 -26 -65 -30 -113 -69 -150 -121 l-27 -37 -31 44 c-42 59 -102 101 -180 125 -73 23 -185 26 -247 6z"/>
    <path d="M5647 1010 c-154 -49 -267 -179 -303 -349 -51 -243 53 -481 252 -577 164 -79 361 -47 491 78 l32 31 3 -69 3 -69 95 0 95 0 3 483 2 482 -100 0 -100 0 0 -71 0 -72 -42 39 c-59 54 -109 83 -171 100 -73 19 -190 17 -260 -6z m299 -174 c110 -51 165 -141 172 -281 5 -120 -19 -189 -92 -260 -182 -179 -468 -58 -493 208 -14 154 66 296 191 341 66 23 162 20 222 -8z"/>
    <path d="M7712 1015 c-96 -27 -156 -69 -197 -139 -47 -81 -42 -193 12 -265 42 -55 107 -88 289 -146 198 -64 224 -81 224 -146 0 -75 -67 -115 -190 -113 -84 2 -165 54 -177 116 l-5 28 -101 0 -100 0 6 -39 c16 -125 132 -228 292 -261 77 -16 207 -6 279 20 67 26 138 87 165 143 39 80 24 205 -32 266 -50 54 -105 79 -319 145 -131 40 -178 74 -178 126 0 78 50 114 160 115 95 0 135 -21 169 -88 l23 -47 95 0 96 0 -7 41 c-16 98 -83 180 -185 227 -46 21 -74 26 -161 29 -71 2 -122 -2 -158 -12z"/>
    <path d="M9381 1014 c-212 -57 -335 -235 -333 -484 2 -294 196 -490 486 -490 121 0 236 46 320 126 44 41 106 136 106 162 0 9 -27 12 -102 11 l-103 0 -30 -42 c-43 -60 -108 -90 -199 -91 -124 -1 -224 65 -261 173 -30 88 -62 80 353 83 l367 3 3 79 c9 238 -117 414 -335 471 -71 19 -201 18 -272 -1z m260 -171 c62 -28 117 -88 134 -147 8 -27 15 -56 15 -63 0 -10 -53 -13 -270 -13 -217 0 -270 3 -270 13 0 7 8 35 17 62 22 66 95 139 159 159 62 20 156 15 215 -11z"/>
    <path d="M7052 538 l3 -483 95 0 95 0 3 483 2 482 -100 0 -100 0 2 -482z"/>
  </g>
</svg>
