<svg fill="currentColor" viewBox="0 0 1e3 375" xmlns="http://www.w3.org/2000/svg">
  <g transform="translate(0 571) scale(.1 -.1)">
    <path d="m4695 5704c-215-17-441-83-621-180-442-241-760-665-879-1173-40-174-49-256-49-456s9-282 49-456c105-449 372-843 738-1087 241-161 491-246 783-267 140-10 174 8 174 91 0 62-31 81-146 89-404 27-744 196-1007 500-70 80-167 216-167 233 0 5 290 192 644 416s652 416 663 428c17 19 18 60 21 887 1 476 0 881-3 900-4 18-17 44-30 57-25 25-48 27-170 18zm15-973v-789l-607-383c-333-211-611-385-617-387-13-3-23 20-71 161-98 283-118 627-55 927 121 575 523 1043 1032 1201 103 32 219 56 281 58l37 1v-789z"></path>
    <path d="m5159 5681-29-29v-1757-1757l29-29c37-36 79-38 118-5l28 24 5 652 5 653 423 267c232 147 429 276 437 286 53 71-34 171-113 130-16-8-190-116-386-240-196-125-359-226-361-226-3 0-5 421-5 935v935h33c78 0 261-43 377-89 189-75 327-168 491-331 143-142 215-241 305-419 113-222 166-425 184-699 6-112 9-126 31-147 38-37 88-37 124 0 23 22 25 31 25 124 0 111-21 274-51 396-184 747-762 1276-1468 1345-155 15-169 14-202-19z"></path>
  </g>
</svg>